<svg fill="none" height="512" viewBox="0 0 36 36" width="512" xmlns="http://www.w3.org/2000/svg"><path d="m18.7936 6.68571c-5.256 1.51595-8.0048.20941-9.94455-.48328-12.35007-4.41031-2.40667 24.63417 4.82025 24.63417 7.2269 0 3.942-3.1582 13.7969-8.843 9.8548-5.6848 3.9419-13.89623 1.9709-15.79117-1.9709-1.89494-4.0736-1.41166-10.6435.48328z" fill="#efefef"/><path d="m18 7.25c-5.9371 0-10.75 4.8129-10.75 10.75s4.8129 10.75 10.75 10.75 10.75-4.8129 10.75-10.75-4.8129-10.75-10.75-10.75z" fill="#2edf84"/><g clip-rule="evenodd" fill-rule="evenodd"><path d="m7.25 18c0-5.9371 4.8129-10.75 10.75-10.75.4228 0 .8399.02441 1.25.0719-5.3482.61931-9.5 5.1639-9.5 10.6781s4.1518 10.0588 9.5 10.6781c-.4101.0475-.8272.0719-1.25.0719-5.9371 0-10.75-4.8129-10.75-10.75z" fill="#00b872"/><path d="m20.25 14c.4142 0 .75.3358.75.75v6.5c0 .4142-.3358.75-.75.75s-.75-.3358-.75-.75v-6.5c0-.4142.3358-.75.75-.75z" fill="#f3f3f1"/><path d="m15.75 14c.4142 0 .75.3358.75.75v6.5c0 .4142-.3358.75-.75.75s-.75-.3358-.75-.75v-6.5c0-.4142.3358-.75.75-.75z" fill="#f3f3f1"/><path d="m18 8.75c-5.1086 0-9.25 4.1414-9.25 9.25s4.1414 9.25 9.25 9.25 9.25-4.1414 9.25-9.25-4.1414-9.25-9.25-9.25zm-10.75 9.25c0-5.9371 4.8129-10.75 10.75-10.75s10.75 4.8129 10.75 10.75-4.8129 10.75-10.75 10.75-10.75-4.8129-10.75-10.75z" fill="#000"/><path d="m15 22v-8h1.5v8z" fill="#000"/><path d="m19.5 22v-8h1.5v8z" fill="#000"/><path d="m18 8.75c-5.1086 0-9.25 4.1414-9.25 9.25s4.1414 9.25 9.25 9.25 9.25-4.1414 9.25-9.25-4.1414-9.25-9.25-9.25zm-10.75 9.25c0-5.9371 4.8129-10.75 10.75-10.75s10.75 4.8129 10.75 10.75-4.8129 10.75-10.75 10.75-10.75-4.8129-10.75-10.75z" fill="#000"/><path d="m28.5 30c.2761 0 .5-.2239.5-.5s-.2239-.5-.5-.5-.5.2239-.5.5.2239.5.5.5zm0 1c.8284 0 1.5-.6716 1.5-1.5s-.6716-1.5-1.5-1.5-1.5.6716-1.5 1.5.6716 1.5 1.5 1.5z" fill="#a4afc1"/></g></svg>