<svg fill="none" height="512" viewBox="0 0 36 36" width="512" xmlns="http://www.w3.org/2000/svg"><path d="m19.8475 7.04443c-5.9084 1.96946-9.3966.86738-11.56504 0-7.22817-2.89126-7.950988 22.40727 3.61404 24.57577 11.5651 2.1684 20.2389-9.3966 20.9617-15.902.7228-6.50532-1.4456-8.67377-3.6141-10.1194-2.1684-1.44563-5.0597 0-9.3966 1.44563z" fill="#efefef"/><path d="m18 7.25c-5.9371 0-10.75 4.8129-10.75 10.75s4.8129 10.75 10.75 10.75 10.75-4.8129 10.75-10.75-4.8129-10.75-10.75-10.75z" fill="#2edf84"/><path clip-rule="evenodd" d="m7.25 18c0-5.9371 4.8129-10.75 10.75-10.75.4228 0 .8399.02441 1.25.0719-5.3482.61931-9.5 5.1639-9.5 10.6781s4.1518 10.0588 9.5 10.6781c-.4101.0475-.8272.0719-1.25.0719-5.9371 0-10.75-4.8129-10.75-10.75z" fill="#00b872" fill-rule="evenodd"/><path d="m15.8975 12.364c-.2312-.1445-.5226-.1522-.7611-.02-.2384.1322-.3864.3834-.3864.656v10c0 .2726.148.5238.3864.656.2385.1322.5299.1245.7611-.02l8-5c.2193-.1371.3525-.3774.3525-.636s-.1332-.4989-.3525-.636z" fill="#f3f3f1"/><g clip-rule="evenodd" fill-rule="evenodd"><path d="m15.1364 12.344c.2385-.1322.5299-.1245.7611.02l1.3525.8453v9.5814l-1.3525.8453c-.2312.1445-.5226.1522-.7611.02-.2384-.1322-.3864-.3834-.3864-.656v-10c0-.2726.148-.5238.3864-.656z" fill="#d6dbe1"/><path d="m15.1364 12.344c.2385-.1322.5299-.1245.7611.02l8 5c.2193.1371.3525.3774.3525.636s-.1332.4989-.3525.636l-8 5c-.2312.1445-.5226.1522-.7611.02-.2384-.1322-.3864-.3834-.3864-.656v-10c0-.2726.148-.5238.3864-.656zm1.1136 2.0092v7.2936l5.8349-3.6468z" fill="#000"/><path d="m18 8.75c-5.1086 0-9.25 4.1414-9.25 9.25s4.1414 9.25 9.25 9.25 9.25-4.1414 9.25-9.25-4.1414-9.25-9.25-9.25zm-10.75 9.25c0-5.9371 4.8129-10.75 10.75-10.75s10.75 4.8129 10.75 10.75-4.8129 10.75-10.75 10.75-10.75-4.8129-10.75-10.75z" fill="#000"/><path d="m13.4142 5.12126-1.4142-1.41421.7071-.70711 1.4142 1.41421z" fill="#90a4ad"/><path d="m15.535 4.4142 1.4142-1.41421.7071.7071-1.4142 1.41422z" fill="#90a4ad"/></g></svg>