<svg width="69px" height="114px" viewBox="0 0 69 114" version="1.1" xmlns="http://www.w3.org/2000/svg" xmlns:xlink="http://www.w3.org/1999/xlink">
    <!-- Generator: Sketch 51.2 (57519) - http://www.bohemiancoding.com/sketch -->
    <title>email_illustration</title>
    <desc>Created with Sketch.</desc>
    <defs>
        <polygon id="path-1" points="0 0.28895 63.7439 0.28895 63.7439 37.9997 0 37.9997"></polygon>
    </defs>
    <g id="Page-1" stroke="none" stroke-width="1" fill="none" fill-rule="evenodd">
        <g id="email_illustration" transform="translate(-26.000000, -3.000000)">
            <rect id="bounds" x="0" y="0" width="120" height="120"></rect>
            <g id="email-illustration" transform="translate(26.000000, 3.000000)">
                <g id="Group-3" transform="translate(0.000000, 76.058000)">
                    <g id="Fill-1-Clipped">
                        <mask id="mask-2" fill="white">
                            <use xlink:href="#path-1"></use>
                        </mask>
                        <g id="path-1"></g>
                        <path d="M58.7254,37.8347 L63.1274,35.2937 C63.9494,34.8187 63.9494,33.6317 63.1274,33.1567 L6.2524,0.4547 C5.8704,0.2337 5.4004,0.2337 5.0184,0.4547 L0.6164,2.9957 C-0.2056,3.4707 -0.2056,4.6577 0.6164,5.1317 L57.4924,37.8347 C57.8734,38.0547 58.3434,38.0547 58.7254,37.8347" id="Fill-1" fill="#E2E3E5" fill-rule="nonzero" mask="url(#mask-2)"></path>
                    </g>
                </g>
                <path d="M2.5898,30.4154 L2.5778,30.3904 L29.5478,23.0344 C30.7028,22.7194 31.9308,23.1404 32.6498,24.0984 C37.8788,31.0754 58.6128,58.7394 59.1658,59.5054 C60.1418,60.8564 60.8108,62.5834 60.8108,64.4844 L60.8108,102.4104 C60.8108,103.6914 60.3358,104.5684 59.5818,104.9404 L57.5378,106.2514 C56.8358,106.8434 55.7648,106.8634 54.5658,106.1704 L5.1568,77.9674 C3.0418,76.7454 1.3268,73.7754 1.3268,71.3324 L1.3268,32.9624 C1.3268,31.6614 1.8158,30.7784 2.5898,30.4154" id="Fill-4" fill="#E2E3E5" fill-rule="nonzero"></path>
                <path d="M4.7839,78.5202 L54.1919,106.7232 C56.1729,107.6832 58.0229,106.9542 58.0229,104.5112 L58.0229,66.0332 C58.0229,64.4662 57.5689,63.0182 56.8629,61.8002 C56.2179,60.6892 33.4129,29.2512 29.5849,24.0762 C29.2369,23.6062 28.6589,23.3812 28.0849,23.4902 C23.3149,24.3942 1.6349,30.6812 1.5599,30.7182 C1.4509,30.7732 0.9529,71.8852 0.9529,71.8852 C0.9529,74.3282 2.6679,77.2992 4.7839,78.5202" id="Fill-6" fill="#FFFFFF" fill-rule="nonzero"></path>
                <path d="M31.376,73.1102 L15.704,64.3452 L7.643,48.5952 L7.643,21.6272 C7.643,20.6182 7.7,20.0982 8.23,19.5982 L8.89,19.0812 L9.711,18.6602 C10.256,18.1902 11.059,18.1692 11.997,18.7112 L50.301,40.5852 C51.862,41.5822 53.263,43.6452 53.263,46.0752 L52.87,68.4082 L31.376,73.1102 Z" id="Fill-8" fill="#FFFFFF" fill-rule="nonzero"></path>
                <path d="M35.854,77.1404 L13.688,65.2734 L7.12,49.6024 L7.12,22.1734 C7.12,20.2784 8.451,18.9644 10.091,19.9114 L48.412,41.7854 C49.973,42.7834 51.383,44.8464 51.383,47.2764 L51.383,74.0054 L35.854,77.1404 Z" id="Fill-10" fill="#FFFFFF" fill-rule="nonzero"></path>
                <polygon id="Fill-12" fill="#8149f8" fill-rule="nonzero" points="15.0532 46.4369 41.9222 62.0239 41.9222 60.3809 15.0532 44.7939"></polygon>
                <polygon id="Fill-14" fill="#8149f8" fill-rule="nonzero" points="15.0532 41.3744 26.2022 47.8554 26.2022 46.2114 15.0532 39.7314"></polygon>
                <polygon id="Fill-16" fill="#8149f8" fill-rule="nonzero" points="15.0532 51.3744 41.9222 66.9614 41.9222 65.3184 15.0532 49.7314"></polygon>
                <path d="M38.3456,50.6816 C38.6226,50.8416 38.9116,50.8086 39.2576,50.5156 L39.5566,48.7306 C39.3846,48.3106 39.1876,48.0506 38.9226,47.8976 C38.1266,47.4386 37.6416,48.3436 37.6416,49.2366 C37.6416,49.9556 37.9186,50.4356 38.3456,50.6816 M39.2806,44.1476 C41.6916,45.5396 43.2256,48.3036 43.2256,51.0076 C43.2256,53.3926 41.8876,53.8316 40.7566,53.1796 C40.0996,52.7996 39.5916,52.1606 39.4886,51.4346 L39.4646,51.4206 C39.1186,51.7536 38.5646,51.8076 38.0696,51.5216 C37.2266,51.0356 36.6156,49.9496 36.6156,48.7376 C36.6156,47.2186 37.5496,46.0926 38.8876,46.8656 C39.2806,47.0916 39.5806,47.4646 39.7876,48.0376 L39.8116,48.0516 L39.9606,47.5916 L40.8036,48.0776 L40.3066,50.6016 C40.1106,51.3946 40.3186,51.9536 40.8836,52.2806 C41.5986,52.6936 42.3486,52.1406 42.3486,50.5556 C42.3486,48.5306 41.3566,46.3056 39.1766,45.0466 C37.1576,43.8816 35.1966,44.7336 35.1966,47.7846 C35.1966,50.4086 36.7196,52.6466 38.5996,53.7326 C39.2456,54.1056 39.9036,54.2586 40.4106,54.2316 L40.7216,55.2646 C40.0306,55.3176 39.3036,55.1106 38.4966,54.6446 C36.2116,53.3266 34.2736,50.5556 34.2736,47.3046 C34.2736,43.6556 36.5696,42.5826 39.2806,44.1476" id="Fill-18" fill="#8149f8" fill-rule="nonzero"></path>
                <path d="M21.1886,23.2365 L44.3626,36.5025" id="Stroke-20" stroke="#111528" stroke-width="1.5" stroke-linecap="round" stroke-linejoin="round"></path>
                <path d="M9.9096,17.8069 C9.8156,17.8589 8.3546,18.7519 8.2686,18.8079 C6.3176,20.0859 6.5236,22.4179 6.5236,23.1249 L6.5236,42.8839" id="Stroke-22" stroke="#111528" stroke-width="1.5" stroke-linecap="round" stroke-linejoin="round"></path>
                <path d="M53.9339,45.7384 L53.9339,67.9604" id="Stroke-24" stroke="#111528" stroke-width="1.5" stroke-linecap="round" stroke-linejoin="round"></path>
                <path d="M10.6546,16.8063 C9.9556,16.8063 9.3116,17.0253 8.7846,17.4423 L7.3266,18.3653 C7.2246,18.4293 7.1306,18.5053 7.0476,18.5923 C6.8216,18.8273 5.6946,20.0763 5.6946,21.6273 L5.6946,27.9313 L3.5516,28.5703 C1.5136,29.1783 0.0996,31.0873 0.1106,33.2123 L0.3216,71.3403 L0.3216,71.8853 C0.3216,74.6293 1.7566,78.2363 4.4986,79.8193 L52.2746,107.1763 C52.3046,107.1933 52.3346,107.2093 52.3656,107.2243 L52.6026,107.3393 C53.6456,107.8483 54.7236,108.3743 55.9566,108.3743 C56.7246,108.3743 57.4666,108.1643 58.1596,107.7493 C58.1946,107.7283 58.2286,107.7063 58.2616,107.6823 L60.8016,105.8683 C62.2166,105.1013 62.2116,103.8303 62.2076,102.7063 L62.2066,102.4413 L62.2326,64.6843 C62.2326,62.6053 61.4936,60.3413 60.2546,58.6263 C60.2106,58.5653 60.0386,58.3493 59.7556,57.9983 C58.9316,56.9783 57.0496,54.6463 54.7936,51.6483 L54.7566,46.0653 C54.7566,43.3933 53.3186,40.7423 51.0946,39.3203 C51.0736,39.3073 51.0526,39.2943 51.0306,39.2823 L41.4176,33.7943 L33.4766,23.1983 C32.6476,22.0923 31.3266,21.4313 29.9446,21.4313 C29.5516,21.4313 29.1606,21.4843 28.7806,21.5873 L22.8636,23.2013 L12.7176,17.4083 C12.0276,17.0103 11.3316,16.8063 10.6546,16.8063 M10.6546,18.3063 C11.0506,18.3063 11.4976,18.4363 11.9736,18.7113 L22.6596,24.8123 L29.1756,23.0343 C29.4306,22.9653 29.6886,22.9313 29.9446,22.9313 C30.8476,22.9313 31.7166,23.3513 32.2766,24.0983 C33.8756,26.2313 36.9266,30.3023 40.4036,34.9433 L50.2866,40.5843 C51.8486,41.5823 53.2566,43.6453 53.2566,46.0753 L53.2966,52.1533 C56.4016,56.3003 58.8636,59.2623 59.0386,59.5053 C60.0146,60.8563 60.7326,62.7823 60.7326,64.6833 L60.7066,102.4413 C60.7066,103.7223 60.7686,104.2143 60.0146,104.5873 L57.3896,106.4623 C56.8986,106.7563 56.4246,106.8743 55.9566,106.8743 C54.9956,106.8743 54.0556,106.3763 53.0196,105.8743 L5.2486,78.5203 C3.1336,77.2983 1.8216,74.3283 1.8216,71.8853 L1.8216,71.3323 L1.6106,33.2043 C1.6026,31.7313 2.5676,30.4293 3.9796,30.0083 L7.1946,29.0493 L7.1946,21.6273 C7.1946,20.6023 8.1286,19.6323 8.1286,19.6323 L9.6646,18.6603 C9.9326,18.4293 10.2696,18.3063 10.6546,18.3063" id="Fill-26" fill="#111528" fill-rule="nonzero"></path>
                <path d="M55.7811,68.1844 L35.7051,72.0654 L34.8491,71.0604 C34.2791,70.3924 33.6001,69.8254 32.8401,69.3854 L18.6391,61.4354 C18.0861,61.1144 17.4541,60.9574 16.8161,60.9814 L15.7781,61.0194 L4.5081,40.4204" id="Stroke-28" stroke="#111528" stroke-width="1.5" stroke-linecap="round" stroke-linejoin="round"></path>
                <path d="M36.3018,74.4536 L53.3178,103.2246" id="Stroke-30" stroke="#D0D3DD" stroke-width="1.5" stroke-linecap="round"></path>
                <path d="M13.9118,63.0347 L4.5078,73.6697" id="Stroke-32" stroke="#D0D3DD" stroke-width="1.5" stroke-linecap="round"></path>
                <path d="M50.7734,49.9931 L50.7734,47.9491 C50.7734,46.0241 49.4224,43.6831 47.7554,42.7211 L45.6634,41.5221" id="Stroke-34" stroke="#D3D3D3" stroke-width="1.5" stroke-linecap="round" stroke-linejoin="round"></path>
                <path d="M42.7053,39.8159 L40.3843,38.4679" id="Stroke-36" stroke="#D3D3D3" stroke-width="1.5" stroke-linecap="round" stroke-linejoin="round"></path>
                <path d="M59.7373,40.9962 L65.3783,41.5062" id="Stroke-38" stroke="#8149f8" stroke-width="1.5" stroke-linecap="round" stroke-linejoin="round"></path>
                <path d="M53.3727,33.26 L55.0677,25.68" id="Stroke-40" stroke="#8149f8" stroke-width="1.5" stroke-linecap="round" stroke-linejoin="round"></path>
                <path d="M58.3285,36.0937 L63.3875,32.2627" id="Stroke-42" stroke="#8149f8" stroke-width="1.5" stroke-linecap="round" stroke-linejoin="round"></path>
                <path d="M66.6661,29.7189 L68.1921,28.5639" id="Stroke-44" stroke="#8149f8" stroke-width="1.5" stroke-linecap="round" stroke-linejoin="round"></path>
                <path d="M26.093,11.054 L21.855,11.054" id="Stroke-46" stroke="#8149f8" stroke-width="2" stroke-linecap="round" stroke-linejoin="round"></path>
                <path d="M23.9741,13.1734 L23.9741,8.9354" id="Stroke-48" stroke="#8149f8" stroke-width="2" stroke-linecap="round" stroke-linejoin="round"></path>
                <path d="M36.7288,11.969 C35.6658,11.969 34.8048,11.108 34.8048,10.045 C34.8048,8.982 35.6658,8.121 36.7288,8.121 C37.7918,8.121 38.6528,8.982 38.6528,10.045 C38.6528,11.108 37.7918,11.969 36.7288,11.969 Z" id="Stroke-50" stroke="#707692" stroke-linecap="round" stroke-linejoin="round"></path>
                <path d="M34.7068,2.922 C33.8998,2.922 33.2458,2.268 33.2458,1.461 C33.2458,0.654 33.8998,1.42108547e-14 34.7068,1.42108547e-14 C35.5138,1.42108547e-14 36.1678,0.654 36.1678,1.461 C36.1678,2.268 35.5138,2.922 34.7068,2.922" id="Fill-52" fill="#8149f8" fill-rule="nonzero"></path>
            </g>
        </g>
    </g>
</svg>