<svg class="icon" viewBox="0 0 72 50" id="youtube" xmlns="http://www.w3.org/2000/svg">
			<path
				d="M34.531.004L36.68.003c4.36.021 22.08.188 26.968 1.526a8.947 8.947 0 016.294 6.295c1.37 5.004 1.466 14.867 1.471 16.874l-.009 1.402c-.04 2.97-.258 11.562-1.462 16.135a8.947 8.947 0 01-6.294 6.294c-4.566 1.202-20.325 1.422-25.937 1.462l-3.332.004c-4.881-.028-21.798-.22-26.613-1.524a8.947 8.947 0 01-6.294-6.295C.159 37.245.017 27.446 0 25.386l.003-1.014c.025-2.486.201-11.74 1.467-16.548.823-3.06 3.294-5.53 6.294-6.353C12.582.203 29.855.028 34.53.004zm-5.943 14.29v21.412L47.176 25 28.588 14.294z" />
		</svg>